<svg xmlns="http://www.w3.org/2000/svg" viewBox="0 0 1280 440" role="img" aria-label="Peter Tu — For decisions that deserve better thinking.">
  <rect width="1280" height="440" fill="#F5F1E8"/>

  <!-- Hairline frames, brand book style -->
  <line x1="80" y1="60" x2="1200" y2="60" stroke="#0F0F0E" stroke-opacity="0.08" stroke-width="1"/>
  <line x1="80" y1="380" x2="1200" y2="380" stroke="#0F0F0E" stroke-opacity="0.08" stroke-width="1"/>

  <!-- Matrise stamp: For [decisions] that matter. -->
  <g>
    <g fill="#0F0F0E" transform="translate(80.00 96) scale(0.028000 -0.028000)">
      <path d="M55 45C55 20 75 0 100 0C125 0 145 20 145 45C145 70 125 90 100 90C75 90 55 70 55 45ZM55 145C55 120 75 100 100 100C125 100 145 120 145 145C145 170 125 190 100 190C75 190 55 170 55 145ZM55 245C55 220 75 200 100 200C125 200 145 220 145 245C145 270 125 290 100 290C75 290 55 270 55 245ZM55 345C55 320 75 300 100 300C125 300 145 320 145 345C145 370 125 390 100 390C75 390 55 370 55 345ZM55 445C55 420 75 400 100 400C125 400 145 420 145 445C145 470 125 490 100 490C75 490 55 470 55 445ZM55 545C55 520 75 500 100 500C125 500 145 520 145 545C145 570 125 590 100 590C75 590 55 570 55 545ZM155 645C155 620 175 600 200 600C225 600 245 620 245 645C245 670 225 690 200 690C175 690 155 670 155 645ZM255 645C255 620 275 600 300 600C325 600 345 620 345 645C345 670 325 690 300 690C275 690 255 670 255 645ZM355 645C355 620 375 600 400 600C425 600 445 620 445 645C445 670 425 690 400 690C375 690 355 670 355 645ZM455 645C455 620 475 600 500 600C525 600 545 620 545 645C545 670 525 690 500 690C475 690 455 670 455 645ZM55 645C55 620 75 600 100 600C125 600 145 620 145 645C145 670 125 690 100 690C75 690 55 670 55 645ZM155 345C155 320 175 300 200 300C225 300 245 320 245 345C245 370 225 390 200 390C175 390 155 370 155 345ZM255 345C255 320 275 300 300 300C325 300 345 320 345 345C345 370 325 390 300 390C275 390 255 370 255 345ZM355 345C355 320 375 300 400 300C425 300 445 320 445 345C445 370 425 390 400 390C375 390 355 370 355 345Z" transform="translate(0.00 0)"/>
      <path d="M55 145C55 120 75 100 100 100C125 100 145 120 145 145C145 170 125 190 100 190C75 190 55 170 55 145ZM55 245C55 220 75 200 100 200C125 200 145 220 145 245C145 270 125 290 100 290C75 290 55 270 55 245ZM55 345C55 320 75 300 100 300C125 300 145 320 145 345C145 370 125 390 100 390C75 390 55 370 55 345ZM155 445C155 420 175 400 200 400C225 400 245 420 245 445C245 470 225 490 200 490C175 490 155 470 155 445ZM255 445C255 420 275 400 300 400C325 400 345 420 345 445C345 470 325 490 300 490C275 490 255 470 255 445ZM355 445C355 420 375 400 400 400C425 400 445 420 445 445C445 470 425 490 400 490C375 490 355 470 355 445ZM455 245C455 220 475 200 500 200C525 200 545 220 545 245C545 270 525 290 500 290C475 290 455 270 455 245ZM455 145C455 120 475 100 500 100C525 100 545 120 545 145C545 170 525 190 500 190C475 190 455 170 455 145ZM455 345C455 320 475 300 500 300C525 300 545 320 545 345C545 370 525 390 500 390C475 390 455 370 455 345ZM155 45C155 20 175 0 200 0C225 0 245 20 245 45C245 70 225 90 200 90C175 90 155 70 155 45ZM255 45C255 20 275 0 300 0C325 0 345 20 345 45C345 70 325 90 300 90C275 90 255 70 255 45ZM355 45C355 20 375 0 400 0C425 0 445 20 445 45C445 70 425 90 400 90C375 90 355 70 355 45Z" transform="translate(600.00 0)"/>
      <path d="M55 145C55 120 75 100 100 100C125 100 145 120 145 145C145 170 125 190 100 190C75 190 55 170 55 145ZM55 245C55 220 75 200 100 200C125 200 145 220 145 245C145 270 125 290 100 290C75 290 55 270 55 245ZM55 345C55 320 75 300 100 300C125 300 145 320 145 345C145 370 125 390 100 390C75 390 55 370 55 345ZM155 345C155 320 175 300 200 300C225 300 245 320 245 345C245 370 225 390 200 390C175 390 155 370 155 345ZM255 445C255 420 275 400 300 400C325 400 345 420 345 445C345 470 325 490 300 490C275 490 255 470 255 445ZM55 445C55 420 75 400 100 400C125 400 145 420 145 445C145 470 125 490 100 490C75 490 55 470 55 445ZM355 345C355 320 375 300 400 300C425 300 445 320 445 345C445 370 425 390 400 390C375 390 355 370 355 345ZM55 45C55 20 75 0 100 0C125 0 145 20 145 45C145 70 125 90 100 90C75 90 55 70 55 45Z" transform="translate(1200.00 0)"/>
    </g>
    <g fill="#5FA48A" transform="translate(136.00 96) scale(0.028000 -0.028000)">
      <path d="M55 145C55 120 75 100 100 100C125 100 145 120 145 145C145 170 125 190 100 190C75 190 55 170 55 145ZM55 245C55 220 75 200 100 200C125 200 145 220 145 245C145 270 125 290 100 290C75 290 55 270 55 245ZM55 345C55 320 75 300 100 300C125 300 145 320 145 345C145 370 125 390 100 390C75 390 55 370 55 345ZM155 445C155 420 175 400 200 400C225 400 245 420 245 445C245 470 225 490 200 490C175 490 155 470 155 445ZM255 445C255 420 275 400 300 400C325 400 345 420 345 445C345 470 325 490 300 490C275 490 255 470 255 445ZM355 345C355 320 375 300 400 300C425 300 445 320 445 345C445 370 425 390 400 390C375 390 355 370 355 345ZM455 245C455 220 475 200 500 200C525 200 545 220 545 245C545 270 525 290 500 290C475 290 455 270 455 245ZM455 145C455 120 475 100 500 100C525 100 545 120 545 145C545 170 525 190 500 190C475 190 455 170 455 145ZM455 345C455 320 475 300 500 300C525 300 545 320 545 345C545 370 525 390 500 390C475 390 455 370 455 345ZM155 45C155 20 175 0 200 0C225 0 245 20 245 45C245 70 225 90 200 90C175 90 155 70 155 45ZM255 45C255 20 275 0 300 0C325 0 345 20 345 45C345 70 325 90 300 90C275 90 255 70 255 45ZM355 45C355 20 375 0 400 0C425 0 445 20 445 45C445 70 425 90 400 90C375 90 355 70 355 45ZM455 545C455 520 475 500 500 500C525 500 545 520 545 545C545 570 525 590 500 590C475 590 455 570 455 545ZM455 445C455 420 475 400 500 400C525 400 545 420 545 445C545 470 525 490 500 490C475 490 455 470 455 445ZM455 645C455 620 475 600 500 600C525 600 545 620 545 645C545 670 525 690 500 690C475 690 455 670 455 645ZM455 45C455 20 475 0 500 0C525 0 545 20 545 45C545 70 525 90 500 90C475 90 455 70 455 45Z" transform="translate(0.00 0)"/>
      <path d="M55 145C55 120 75 100 100 100C125 100 145 120 145 145C145 170 125 190 100 190C75 190 55 170 55 145ZM55 245C55 220 75 200 100 200C125 200 145 220 145 245C145 270 125 290 100 290C75 290 55 270 55 245ZM55 345C55 320 75 300 100 300C125 300 145 320 145 345C145 370 125 390 100 390C75 390 55 370 55 345ZM155 445C155 420 175 400 200 400C225 400 245 420 245 445C245 470 225 490 200 490C175 490 155 470 155 445ZM255 445C255 420 275 400 300 400C325 400 345 420 345 445C345 470 325 490 300 490C275 490 255 470 255 445ZM355 445C355 420 375 400 400 400C425 400 445 420 445 445C445 470 425 490 400 490C375 490 355 470 355 445ZM455 245C455 220 475 200 500 200C525 200 545 220 545 245C545 270 525 290 500 290C475 290 455 270 455 245ZM455 345C455 320 475 300 500 300C525 300 545 320 545 345C545 370 525 390 500 390C475 390 455 370 455 345ZM155 45C155 20 175 0 200 0C225 0 245 20 245 45C245 70 225 90 200 90C175 90 155 70 155 45ZM255 45C255 20 275 0 300 0C325 0 345 20 345 45C345 70 325 90 300 90C275 90 255 70 255 45ZM355 45C355 20 375 0 400 0C425 0 445 20 445 45C445 70 425 90 400 90C375 90 355 70 355 45ZM155 245C155 220 175 200 200 200C225 200 245 220 245 245C245 270 225 290 200 290C175 290 155 270 155 245ZM255 245C255 220 275 200 300 200C325 200 345 220 345 245C345 270 325 290 300 290C275 290 255 270 255 245ZM355 245C355 220 375 200 400 200C425 200 445 220 445 245C445 270 425 290 400 290C375 290 355 270 355 245Z" transform="translate(600.00 0)"/>
      <path d="M55 145C55 120 75 100 100 100C125 100 145 120 145 145C145 170 125 190 100 190C75 190 55 170 55 145ZM55 245C55 220 75 200 100 200C125 200 145 220 145 245C145 270 125 290 100 290C75 290 55 270 55 245ZM55 345C55 320 75 300 100 300C125 300 145 320 145 345C145 370 125 390 100 390C75 390 55 370 55 345ZM155 445C155 420 175 400 200 400C225 400 245 420 245 445C245 470 225 490 200 490C175 490 155 470 155 445ZM255 445C255 420 275 400 300 400C325 400 345 420 345 445C345 470 325 490 300 490C275 490 255 470 255 445ZM355 445C355 420 375 400 400 400C425 400 445 420 445 445C445 470 425 490 400 490C375 490 355 470 355 445ZM455 345C455 320 475 300 500 300C525 300 545 320 545 345C545 370 525 390 500 390C475 390 455 370 455 345ZM155 45C155 20 175 0 200 0C225 0 245 20 245 45C245 70 225 90 200 90C175 90 155 70 155 45ZM255 45C255 20 275 0 300 0C325 0 345 20 345 45C345 70 325 90 300 90C275 90 255 70 255 45ZM355 45C355 20 375 0 400 0C425 0 445 20 445 45C445 70 425 90 400 90C375 90 355 70 355 45Z" transform="translate(1200.00 0)"/>
      <path d="M155 145C155 120 175 100 200 100C225 100 245 120 245 145C245 170 225 190 200 190C175 190 155 170 155 145ZM155 245C155 220 175 200 200 200C225 200 245 220 245 245C245 270 225 290 200 290C175 290 155 270 155 245ZM155 345C155 320 175 300 200 300C225 300 245 320 245 345C245 370 225 390 200 390C175 390 155 370 155 345ZM155 445C155 420 175 400 200 400C225 400 245 420 245 445C245 470 225 490 200 490C175 490 155 470 155 445ZM255 45C255 20 275 0 300 0C325 0 345 20 345 45C345 70 325 90 300 90C275 90 255 70 255 45ZM55 45C55 20 75 0 100 0C125 0 145 20 145 45C145 70 125 90 100 90C75 90 55 70 55 45ZM155 45C155 20 175 0 200 0C225 0 245 20 245 45C245 70 225 90 200 90C175 90 155 70 155 45ZM155 645C155 620 175 600 200 600C225 600 245 620 245 645C245 670 225 690 200 690C175 690 155 670 155 645ZM55 445C55 420 75 400 100 400C125 400 145 420 145 445C145 470 125 490 100 490C75 490 55 470 55 445Z" transform="translate(1800.00 0)"/>
      <path d="M55 45C55 20 75 0 100 0C125 0 145 20 145 45C145 70 125 90 100 90C75 90 55 70 55 45ZM55 345C55 320 75 300 100 300C125 300 145 320 145 345C145 370 125 390 100 390C75 390 55 370 55 345ZM155 445C155 420 175 400 200 400C225 400 245 420 245 445C245 470 225 490 200 490C175 490 155 470 155 445ZM255 445C255 420 275 400 300 400C325 400 345 420 345 445C345 470 325 490 300 490C275 490 255 470 255 445ZM355 445C355 420 375 400 400 400C425 400 445 420 445 445C445 470 425 490 400 490C375 490 355 470 355 445ZM455 145C455 120 475 100 500 100C525 100 545 120 545 145C545 170 525 190 500 190C475 190 455 170 455 145ZM155 45C155 20 175 0 200 0C225 0 245 20 245 45C245 70 225 90 200 90C175 90 155 70 155 45ZM255 45C255 20 275 0 300 0C325 0 345 20 345 45C345 70 325 90 300 90C275 90 255 70 255 45ZM355 45C355 20 375 0 400 0C425 0 445 20 445 45C445 70 425 90 400 90C375 90 355 70 355 45ZM155 245C155 220 175 200 200 200C225 200 245 220 245 245C245 270 225 290 200 290C175 290 155 270 155 245ZM255 245C255 220 275 200 300 200C325 200 345 220 345 245C345 270 325 290 300 290C275 290 255 270 255 245ZM355 245C355 220 375 200 400 200C425 200 445 220 445 245C445 270 425 290 400 290C375 290 355 270 355 245Z" transform="translate(2200.00 0)"/>
      <path d="M155 145C155 120 175 100 200 100C225 100 245 120 245 145C245 170 225 190 200 190C175 190 155 170 155 145ZM155 245C155 220 175 200 200 200C225 200 245 220 245 245C245 270 225 290 200 290C175 290 155 270 155 245ZM155 345C155 320 175 300 200 300C225 300 245 320 245 345C245 370 225 390 200 390C175 390 155 370 155 345ZM155 445C155 420 175 400 200 400C225 400 245 420 245 445C245 470 225 490 200 490C175 490 155 470 155 445ZM255 45C255 20 275 0 300 0C325 0 345 20 345 45C345 70 325 90 300 90C275 90 255 70 255 45ZM55 45C55 20 75 0 100 0C125 0 145 20 145 45C145 70 125 90 100 90C75 90 55 70 55 45ZM155 45C155 20 175 0 200 0C225 0 245 20 245 45C245 70 225 90 200 90C175 90 155 70 155 45ZM155 645C155 620 175 600 200 600C225 600 245 620 245 645C245 670 225 690 200 690C175 690 155 670 155 645ZM55 445C55 420 75 400 100 400C125 400 145 420 145 445C145 470 125 490 100 490C75 490 55 470 55 445Z" transform="translate(2800.00 0)"/>
      <path d="M55 145C55 120 75 100 100 100C125 100 145 120 145 145C145 170 125 190 100 190C75 190 55 170 55 145ZM55 245C55 220 75 200 100 200C125 200 145 220 145 245C145 270 125 290 100 290C75 290 55 270 55 245ZM55 345C55 320 75 300 100 300C125 300 145 320 145 345C145 370 125 390 100 390C75 390 55 370 55 345ZM155 445C155 420 175 400 200 400C225 400 245 420 245 445C245 470 225 490 200 490C175 490 155 470 155 445ZM255 445C255 420 275 400 300 400C325 400 345 420 345 445C345 470 325 490 300 490C275 490 255 470 255 445ZM355 445C355 420 375 400 400 400C425 400 445 420 445 445C445 470 425 490 400 490C375 490 355 470 355 445ZM455 245C455 220 475 200 500 200C525 200 545 220 545 245C545 270 525 290 500 290C475 290 455 270 455 245ZM455 145C455 120 475 100 500 100C525 100 545 120 545 145C545 170 525 190 500 190C475 190 455 170 455 145ZM455 345C455 320 475 300 500 300C525 300 545 320 545 345C545 370 525 390 500 390C475 390 455 370 455 345ZM155 45C155 20 175 0 200 0C225 0 245 20 245 45C245 70 225 90 200 90C175 90 155 70 155 45ZM255 45C255 20 275 0 300 0C325 0 345 20 345 45C345 70 325 90 300 90C275 90 255 70 255 45ZM355 45C355 20 375 0 400 0C425 0 445 20 445 45C445 70 425 90 400 90C375 90 355 70 355 45Z" transform="translate(3200.00 0)"/>
      <path d="M55 145C55 120 75 100 100 100C125 100 145 120 145 145C145 170 125 190 100 190C75 190 55 170 55 145ZM55 245C55 220 75 200 100 200C125 200 145 220 145 245C145 270 125 290 100 290C75 290 55 270 55 245ZM55 345C55 320 75 300 100 300C125 300 145 320 145 345C145 370 125 390 100 390C75 390 55 370 55 345ZM155 345C155 320 175 300 200 300C225 300 245 320 245 345C245 370 225 390 200 390C175 390 155 370 155 345ZM255 445C255 420 275 400 300 400C325 400 345 420 345 445C345 470 325 490 300 490C275 490 255 470 255 445ZM355 445C355 420 375 400 400 400C425 400 445 420 445 445C445 470 425 490 400 490C375 490 355 470 355 445ZM455 245C455 220 475 200 500 200C525 200 545 220 545 245C545 270 525 290 500 290C475 290 455 270 455 245ZM455 145C455 120 475 100 500 100C525 100 545 120 545 145C545 170 525 190 500 190C475 190 455 170 455 145ZM455 345C455 320 475 300 500 300C525 300 545 320 545 345C545 370 525 390 500 390C475 390 455 370 455 345ZM55 45C55 20 75 0 100 0C125 0 145 20 145 45C145 70 125 90 100 90C75 90 55 70 55 45ZM455 45C455 20 475 0 500 0C525 0 545 20 545 45C545 70 525 90 500 90C475 90 455 70 455 45ZM55 445C55 420 75 400 100 400C125 400 145 420 145 445C145 470 125 490 100 490C75 490 55 470 55 445Z" transform="translate(3800.00 0)"/>
      <path d="M55 45C55 20 75 0 100 0C125 0 145 20 145 45C145 70 125 90 100 90C75 90 55 70 55 45ZM55 345C55 320 75 300 100 300C125 300 145 320 145 345C145 370 125 390 100 390C75 390 55 370 55 345ZM155 445C155 420 175 400 200 400C225 400 245 420 245 445C245 470 225 490 200 490C175 490 155 470 155 445ZM255 445C255 420 275 400 300 400C325 400 345 420 345 445C345 470 325 490 300 490C275 490 255 470 255 445ZM355 445C355 420 375 400 400 400C425 400 445 420 445 445C445 470 425 490 400 490C375 490 355 470 355 445ZM455 145C455 120 475 100 500 100C525 100 545 120 545 145C545 170 525 190 500 190C475 190 455 170 455 145ZM155 45C155 20 175 0 200 0C225 0 245 20 245 45C245 70 225 90 200 90C175 90 155 70 155 45ZM255 45C255 20 275 0 300 0C325 0 345 20 345 45C345 70 325 90 300 90C275 90 255 70 255 45ZM355 45C355 20 375 0 400 0C425 0 445 20 445 45C445 70 425 90 400 90C375 90 355 70 355 45ZM155 245C155 220 175 200 200 200C225 200 245 220 245 245C245 270 225 290 200 290C175 290 155 270 155 245ZM255 245C255 220 275 200 300 200C325 200 345 220 345 245C345 270 325 290 300 290C275 290 255 270 255 245ZM355 245C355 220 375 200 400 200C425 200 445 220 445 245C445 270 425 290 400 290C375 290 355 270 355 245Z" transform="translate(4400.00 0)"/>
    </g>
    <g fill="#0F0F0E" transform="translate(276.00 96) scale(0.028000 -0.028000)">
      <path d="M155 145C155 120 175 100 200 100C225 100 245 120 245 145C245 170 225 190 200 190C175 190 155 170 155 145ZM155 245C155 220 175 200 200 200C225 200 245 220 245 245C245 270 225 290 200 290C175 290 155 270 155 245ZM155 345C155 320 175 300 200 300C225 300 245 320 245 345C245 370 225 390 200 390C175 390 155 370 155 345ZM155 445C155 420 175 400 200 400C225 400 245 420 245 445C245 470 225 490 200 490C175 490 155 470 155 445ZM255 445C255 420 275 400 300 400C325 400 345 420 345 445C345 470 325 490 300 490C275 490 255 470 255 445ZM355 445C355 420 375 400 400 400C425 400 445 420 445 445C445 470 425 490 400 490C375 490 355 470 355 445ZM155 545C155 520 175 500 200 500C225 500 245 520 245 545C245 570 225 590 200 590C175 590 155 570 155 545ZM155 645C155 620 175 600 200 600C225 600 245 620 245 645C245 670 225 690 200 690C175 690 155 670 155 645ZM55 445C55 420 75 400 100 400C125 400 145 420 145 445C145 470 125 490 100 490C75 490 55 470 55 445ZM255 45C255 20 275 0 300 0C325 0 345 20 345 45C345 70 325 90 300 90C275 90 255 70 255 45ZM355 45C355 20 375 0 400 0C425 0 445 20 445 45C445 70 425 90 400 90C375 90 355 70 355 45Z" transform="translate(300.00 0)"/>
      <path d="M55 145C55 120 75 100 100 100C125 100 145 120 145 145C145 170 125 190 100 190C75 190 55 170 55 145ZM55 245C55 220 75 200 100 200C125 200 145 220 145 245C145 270 125 290 100 290C75 290 55 270 55 245ZM55 345C55 320 75 300 100 300C125 300 145 320 145 345C145 370 125 390 100 390C75 390 55 370 55 345ZM155 345C155 320 175 300 200 300C225 300 245 320 245 345C245 370 225 390 200 390C175 390 155 370 155 345ZM255 445C255 420 275 400 300 400C325 400 345 420 345 445C345 470 325 490 300 490C275 490 255 470 255 445ZM355 445C355 420 375 400 400 400C425 400 445 420 445 445C445 470 425 490 400 490C375 490 355 470 355 445ZM455 245C455 220 475 200 500 200C525 200 545 220 545 245C545 270 525 290 500 290C475 290 455 270 455 245ZM455 145C455 120 475 100 500 100C525 100 545 120 545 145C545 170 525 190 500 190C475 190 455 170 455 145ZM455 345C455 320 475 300 500 300C525 300 545 320 545 345C545 370 525 390 500 390C475 390 455 370 455 345ZM55 45C55 20 75 0 100 0C125 0 145 20 145 45C145 70 125 90 100 90C75 90 55 70 55 45ZM455 45C455 20 475 0 500 0C525 0 545 20 545 45C545 70 525 90 500 90C475 90 455 70 455 45ZM55 445C55 420 75 400 100 400C125 400 145 420 145 445C145 470 125 490 100 490C75 490 55 470 55 445ZM55 545C55 520 75 500 100 500C125 500 145 520 145 545C145 570 125 590 100 590C75 590 55 570 55 545ZM55 645C55 620 75 600 100 600C125 600 145 620 145 645C145 670 125 690 100 690C75 690 55 670 55 645Z" transform="translate(800.00 0)"/>
      <path d="M55 145C55 120 75 100 100 100C125 100 145 120 145 145C145 170 125 190 100 190C75 190 55 170 55 145ZM455 45C455 20 475 0 500 0C525 0 545 20 545 45C545 70 525 90 500 90C475 90 455 70 455 45ZM155 445C155 420 175 400 200 400C225 400 245 420 245 445C245 470 225 490 200 490C175 490 155 470 155 445ZM255 445C255 420 275 400 300 400C325 400 345 420 345 445C345 470 325 490 300 490C275 490 255 470 255 445ZM355 445C355 420 375 400 400 400C425 400 445 420 445 445C445 470 425 490 400 490C375 490 355 470 355 445ZM455 245C455 220 475 200 500 200C525 200 545 220 545 245C545 270 525 290 500 290C475 290 455 270 455 245ZM455 145C455 120 475 100 500 100C525 100 545 120 545 145C545 170 525 190 500 190C475 190 455 170 455 145ZM455 345C455 320 475 300 500 300C525 300 545 320 545 345C545 370 525 390 500 390C475 390 455 370 455 345ZM155 45C155 20 175 0 200 0C225 0 245 20 245 45C245 70 225 90 200 90C175 90 155 70 155 45ZM255 45C255 20 275 0 300 0C325 0 345 20 345 45C345 70 325 90 300 90C275 90 255 70 255 45ZM355 145C355 120 375 100 400 100C425 100 445 120 445 145C445 170 425 190 400 190C375 190 355 170 355 145ZM55 245C55 220 75 200 100 200C125 200 145 220 145 245C145 270 125 290 100 290C75 290 55 270 55 245ZM55 345C55 320 75 300 100 300C125 300 145 320 145 345C145 370 125 390 100 390C75 390 55 370 55 345Z" transform="translate(1400.00 0)"/>
      <path d="M155 145C155 120 175 100 200 100C225 100 245 120 245 145C245 170 225 190 200 190C175 190 155 170 155 145ZM155 245C155 220 175 200 200 200C225 200 245 220 245 245C245 270 225 290 200 290C175 290 155 270 155 245ZM155 345C155 320 175 300 200 300C225 300 245 320 245 345C245 370 225 390 200 390C175 390 155 370 155 345ZM155 445C155 420 175 400 200 400C225 400 245 420 245 445C245 470 225 490 200 490C175 490 155 470 155 445ZM255 445C255 420 275 400 300 400C325 400 345 420 345 445C345 470 325 490 300 490C275 490 255 470 255 445ZM355 445C355 420 375 400 400 400C425 400 445 420 445 445C445 470 425 490 400 490C375 490 355 470 355 445ZM155 545C155 520 175 500 200 500C225 500 245 520 245 545C245 570 225 590 200 590C175 590 155 570 155 545ZM155 645C155 620 175 600 200 600C225 600 245 620 245 645C245 670 225 690 200 690C175 690 155 670 155 645ZM55 445C55 420 75 400 100 400C125 400 145 420 145 445C145 470 125 490 100 490C75 490 55 470 55 445ZM255 45C255 20 275 0 300 0C325 0 345 20 345 45C345 70 325 90 300 90C275 90 255 70 255 45ZM355 45C355 20 375 0 400 0C425 0 445 20 445 45C445 70 425 90 400 90C375 90 355 70 355 45Z" transform="translate(2000.00 0)"/>
      <path d="M55 145C55 120 75 100 100 100C125 100 145 120 145 145C145 170 125 190 100 190C75 190 55 170 55 145ZM55 245C55 220 75 200 100 200C125 200 145 220 145 245C145 270 125 290 100 290C75 290 55 270 55 245ZM55 345C55 320 75 300 100 300C125 300 145 320 145 345C145 370 125 390 100 390C75 390 55 370 55 345ZM155 445C155 420 175 400 200 400C225 400 245 420 245 445C245 470 225 490 200 490C175 490 155 470 155 445ZM255 445C255 420 275 400 300 400C325 400 345 420 345 445C345 470 325 490 300 490C275 490 255 470 255 445ZM355 245C355 220 375 200 400 200C425 200 445 220 445 245C445 270 425 290 400 290C375 290 355 270 355 245ZM355 145C355 120 375 100 400 100C425 100 445 120 445 145C445 170 425 190 400 190C375 190 355 170 355 145ZM355 345C355 320 375 300 400 300C425 300 445 320 445 345C445 370 425 390 400 390C375 390 355 370 355 345ZM55 45C55 20 75 0 100 0C125 0 145 20 145 45C145 70 125 90 100 90C75 90 55 70 55 45ZM355 45C355 20 375 0 400 0C425 0 445 20 445 45C445 70 425 90 400 90C375 90 355 70 355 45ZM55 445C55 420 75 400 100 400C125 400 145 420 145 445C145 470 125 490 100 490C75 490 55 470 55 445ZM455 445C455 420 475 400 500 400C525 400 545 420 545 445C545 470 525 490 500 490C475 490 455 470 455 445ZM555 445C555 420 575 400 600 400C625 400 645 420 645 445C645 470 625 490 600 490C575 490 555 470 555 445ZM655 245C655 220 675 200 700 200C725 200 745 220 745 245C745 270 725 290 700 290C675 290 655 270 655 245ZM655 145C655 120 675 100 700 100C725 100 745 120 745 145C745 170 725 190 700 190C675 190 655 170 655 145ZM655 345C655 320 675 300 700 300C725 300 745 320 745 345C745 370 725 390 700 390C675 390 655 370 655 345ZM655 45C655 20 675 0 700 0C725 0 745 20 745 45C745 70 725 90 700 90C675 90 655 70 655 45Z" transform="translate(2800.00 0)"/>
      <path d="M55 145C55 120 75 100 100 100C125 100 145 120 145 145C145 170 125 190 100 190C75 190 55 170 55 145ZM455 45C455 20 475 0 500 0C525 0 545 20 545 45C545 70 525 90 500 90C475 90 455 70 455 45ZM155 445C155 420 175 400 200 400C225 400 245 420 245 445C245 470 225 490 200 490C175 490 155 470 155 445ZM255 445C255 420 275 400 300 400C325 400 345 420 345 445C345 470 325 490 300 490C275 490 255 470 255 445ZM355 445C355 420 375 400 400 400C425 400 445 420 445 445C445 470 425 490 400 490C375 490 355 470 355 445ZM455 245C455 220 475 200 500 200C525 200 545 220 545 245C545 270 525 290 500 290C475 290 455 270 455 245ZM455 145C455 120 475 100 500 100C525 100 545 120 545 145C545 170 525 190 500 190C475 190 455 170 455 145ZM455 345C455 320 475 300 500 300C525 300 545 320 545 345C545 370 525 390 500 390C475 390 455 370 455 345ZM155 45C155 20 175 0 200 0C225 0 245 20 245 45C245 70 225 90 200 90C175 90 155 70 155 45ZM255 45C255 20 275 0 300 0C325 0 345 20 345 45C345 70 325 90 300 90C275 90 255 70 255 45ZM355 145C355 120 375 100 400 100C425 100 445 120 445 145C445 170 425 190 400 190C375 190 355 170 355 145ZM55 245C55 220 75 200 100 200C125 200 145 220 145 245C145 270 125 290 100 290C75 290 55 270 55 245ZM55 345C55 320 75 300 100 300C125 300 145 320 145 345C145 370 125 390 100 390C75 390 55 370 55 345Z" transform="translate(3600.00 0)"/>
      <path d="M155 145C155 120 175 100 200 100C225 100 245 120 245 145C245 170 225 190 200 190C175 190 155 170 155 145ZM155 245C155 220 175 200 200 200C225 200 245 220 245 245C245 270 225 290 200 290C175 290 155 270 155 245ZM155 345C155 320 175 300 200 300C225 300 245 320 245 345C245 370 225 390 200 390C175 390 155 370 155 345ZM155 445C155 420 175 400 200 400C225 400 245 420 245 445C245 470 225 490 200 490C175 490 155 470 155 445ZM255 445C255 420 275 400 300 400C325 400 345 420 345 445C345 470 325 490 300 490C275 490 255 470 255 445ZM355 445C355 420 375 400 400 400C425 400 445 420 445 445C445 470 425 490 400 490C375 490 355 470 355 445ZM155 545C155 520 175 500 200 500C225 500 245 520 245 545C245 570 225 590 200 590C175 590 155 570 155 545ZM155 645C155 620 175 600 200 600C225 600 245 620 245 645C245 670 225 690 200 690C175 690 155 670 155 645ZM55 445C55 420 75 400 100 400C125 400 145 420 145 445C145 470 125 490 100 490C75 490 55 470 55 445ZM255 45C255 20 275 0 300 0C325 0 345 20 345 45C345 70 325 90 300 90C275 90 255 70 255 45ZM355 45C355 20 375 0 400 0C425 0 445 20 445 45C445 70 425 90 400 90C375 90 355 70 355 45Z" transform="translate(4200.00 0)"/>
      <path d="M155 145C155 120 175 100 200 100C225 100 245 120 245 145C245 170 225 190 200 190C175 190 155 170 155 145ZM155 245C155 220 175 200 200 200C225 200 245 220 245 245C245 270 225 290 200 290C175 290 155 270 155 245ZM155 345C155 320 175 300 200 300C225 300 245 320 245 345C245 370 225 390 200 390C175 390 155 370 155 345ZM155 445C155 420 175 400 200 400C225 400 245 420 245 445C245 470 225 490 200 490C175 490 155 470 155 445ZM255 445C255 420 275 400 300 400C325 400 345 420 345 445C345 470 325 490 300 490C275 490 255 470 255 445ZM355 445C355 420 375 400 400 400C425 400 445 420 445 445C445 470 425 490 400 490C375 490 355 470 355 445ZM155 545C155 520 175 500 200 500C225 500 245 520 245 545C245 570 225 590 200 590C175 590 155 570 155 545ZM155 645C155 620 175 600 200 600C225 600 245 620 245 645C245 670 225 690 200 690C175 690 155 670 155 645ZM55 445C55 420 75 400 100 400C125 400 145 420 145 445C145 470 125 490 100 490C75 490 55 470 55 445ZM255 45C255 20 275 0 300 0C325 0 345 20 345 45C345 70 325 90 300 90C275 90 255 70 255 45ZM355 45C355 20 375 0 400 0C425 0 445 20 445 45C445 70 425 90 400 90C375 90 355 70 355 45Z" transform="translate(4700.00 0)"/>
      <path d="M55 145C55 120 75 100 100 100C125 100 145 120 145 145C145 170 125 190 100 190C75 190 55 170 55 145ZM55 245C55 220 75 200 100 200C125 200 145 220 145 245C145 270 125 290 100 290C75 290 55 270 55 245ZM55 345C55 320 75 300 100 300C125 300 145 320 145 345C145 370 125 390 100 390C75 390 55 370 55 345ZM155 445C155 420 175 400 200 400C225 400 245 420 245 445C245 470 225 490 200 490C175 490 155 470 155 445ZM255 445C255 420 275 400 300 400C325 400 345 420 345 445C345 470 325 490 300 490C275 490 255 470 255 445ZM355 445C355 420 375 400 400 400C425 400 445 420 445 445C445 470 425 490 400 490C375 490 355 470 355 445ZM455 245C455 220 475 200 500 200C525 200 545 220 545 245C545 270 525 290 500 290C475 290 455 270 455 245ZM455 345C455 320 475 300 500 300C525 300 545 320 545 345C545 370 525 390 500 390C475 390 455 370 455 345ZM155 45C155 20 175 0 200 0C225 0 245 20 245 45C245 70 225 90 200 90C175 90 155 70 155 45ZM255 45C255 20 275 0 300 0C325 0 345 20 345 45C345 70 325 90 300 90C275 90 255 70 255 45ZM355 45C355 20 375 0 400 0C425 0 445 20 445 45C445 70 425 90 400 90C375 90 355 70 355 45ZM155 245C155 220 175 200 200 200C225 200 245 220 245 245C245 270 225 290 200 290C175 290 155 270 155 245ZM255 245C255 220 275 200 300 200C325 200 345 220 345 245C345 270 325 290 300 290C275 290 255 270 255 245ZM355 245C355 220 375 200 400 200C425 200 445 220 445 245C445 270 425 290 400 290C375 290 355 270 355 245Z" transform="translate(5200.00 0)"/>
      <path d="M55 145C55 120 75 100 100 100C125 100 145 120 145 145C145 170 125 190 100 190C75 190 55 170 55 145ZM55 245C55 220 75 200 100 200C125 200 145 220 145 245C145 270 125 290 100 290C75 290 55 270 55 245ZM55 345C55 320 75 300 100 300C125 300 145 320 145 345C145 370 125 390 100 390C75 390 55 370 55 345ZM155 345C155 320 175 300 200 300C225 300 245 320 245 345C245 370 225 390 200 390C175 390 155 370 155 345ZM255 445C255 420 275 400 300 400C325 400 345 420 345 445C345 470 325 490 300 490C275 490 255 470 255 445ZM55 445C55 420 75 400 100 400C125 400 145 420 145 445C145 470 125 490 100 490C75 490 55 470 55 445ZM355 345C355 320 375 300 400 300C425 300 445 320 445 345C445 370 425 390 400 390C375 390 355 370 355 345ZM55 45C55 20 75 0 100 0C125 0 145 20 145 45C145 70 125 90 100 90C75 90 55 70 55 45Z" transform="translate(5800.00 0)"/>
      <path d="M55 45C55 20 75 0 100 0C125 0 145 20 145 45C145 70 125 90 100 90C75 90 55 70 55 45ZM55 145C55 120 75 100 100 100C125 100 145 120 145 145C145 170 125 190 100 190C75 190 55 170 55 145ZM155 145C155 120 175 100 200 100C225 100 245 120 245 145C245 170 225 190 200 190C175 190 155 170 155 145ZM155 45C155 20 175 0 200 0C225 0 245 20 245 45C245 70 225 90 200 90C175 90 155 70 155 45Z" transform="translate(6300.00 0)"/>
    </g>
  </g>

  <!-- H1: For decisions that deserve better thinking. -->
  <text x="80" y="178" font-family="'Space Grotesk', 'Inter', Helvetica Neue, Arial, sans-serif" font-size="46" font-weight="600" fill="#0F0F0E" letter-spacing="-0.5">For decisions that deserve</text>
  <text x="80" y="232" font-family="'Space Grotesk', 'Inter', Helvetica Neue, Arial, sans-serif" font-size="46" font-weight="600" fill="#0F0F0E" letter-spacing="-0.5">better thinking.</text>

  <!-- Supporting lede -->
  <text x="80" y="300" font-family="'Inter', Helvetica Neue, Arial, sans-serif" font-size="17" fill="#5C5C58">Peter asks the sharper question, exposes the real trade-off,</text>
  <text x="80" y="324" font-family="'Inter', Helvetica Neue, Arial, sans-serif" font-size="17" fill="#5C5C58">and helps non-engineers ship with clarity.</text>

  <!-- Meta line -->
  <text x="80" y="382" font-family="ui-monospace, 'SF Mono', Menlo, Consolas, monospace" font-size="12" letter-spacing="2.5" fill="#5FA48A">PETER TU  ·  FOUNDER OF ZYNKR  ·  AMSTERDAM</text>

  <!-- Concentric Z motif (right side) -->
  <g transform="translate(900, 53) scale(0.34)">
    <circle cx="490" cy="490" r="430" fill="none" stroke="#86C4AC" stroke-opacity="0.28" stroke-width="3"/>
    <circle cx="490" cy="490" r="335" fill="none" stroke="#86C4AC" stroke-opacity="0.46" stroke-width="3"/>
    <circle cx="490" cy="490" r="240" fill="none" stroke="#86C4AC" stroke-opacity="0.70" stroke-width="3"/>
    <circle cx="490" cy="490" r="155" fill="none" stroke="#5FA48A" stroke-width="3"/>
    <polyline points="408,408 572,408 408,572 572,572" fill="none" stroke="#0F0F0E" stroke-width="22" stroke-linecap="butt" stroke-linejoin="round"/>
    <circle cx="490" cy="490" r="20" fill="#F26B1F"/>
  </g>
</svg>
