<svg xmlns="http://www.w3.org/2000/svg" viewBox="0 0 600 360" role="img" aria-label="Code distribution across active Zynkr repos">
  <g>
    <path d="M180,180 L180,40 A140,140 0 0,1 249.71,301.41 Z" fill="#FBF7F0" stroke="#2B2B28" stroke-width="2"/>
    <path d="M180,180 L249.71,301.41 A140,140 0 0,1 53.15,120.79 Z" fill="#5FA48A" stroke="#FBF7F0" stroke-width="2"/>
    <path d="M180,180 L53.15,120.79 A140,140 0 0,1 103.53,62.72 Z" fill="#2B2B28" stroke="#FBF7F0" stroke-width="2"/>
    <path d="M180,180 L103.53,62.72 A140,140 0 0,1 155.50,42.17 Z" fill="#3D3A36" stroke="#FBF7F0" stroke-width="2"/>
    <path d="M180,180 L155.50,42.17 A140,140 0 0,1 171.21,40.28 Z" fill="#6F6B62" stroke="#FBF7F0" stroke-width="2"/>
    <path d="M180,180 L171.21,40.28 A140,140 0 0,1 177.36,40.03 Z" fill="#2B2B28" stroke="#FBF7F0" stroke-width="2"/>
    <path d="M180,180 L177.36,40.03 A140,140 0 0,1 180,40 Z" fill="#F26B1F" stroke="#FBF7F0" stroke-width="2"/>
  </g>
  <g font-family="'Space Grotesk', Inter, system-ui, sans-serif" font-size="13" fill="#2B2B28">
    <g transform="translate(380,90)"><rect width="16" height="16" fill="#FBF7F0" stroke="#2B2B28" stroke-width="1.5"/><text x="26" y="13">HTML · 41.7%</text></g>
    <g transform="translate(380,120)"><rect width="16" height="16" fill="#5FA48A"/><text x="26" y="13">TypeScript · 40.2%</text></g>
    <g transform="translate(380,150)"><rect width="16" height="16" fill="#2B2B28"/><text x="26" y="13">CSS · 8.9%</text></g>
    <g transform="translate(380,180)"><rect width="16" height="16" fill="#3D3A36"/><text x="26" y="13">JavaScript · 6.4%</text></g>
    <g transform="translate(380,210)"><rect width="16" height="16" fill="#6F6B62"/><text x="26" y="13">Python · 1.8%</text></g>
    <g transform="translate(380,240)"><rect width="16" height="16" fill="#2B2B28"/><text x="26" y="13">PLpgSQL · 0.7%</text></g>
    <g transform="translate(380,270)"><rect width="16" height="16" fill="#F26B1F"/><text x="26" y="13">Shell · 0.3%</text></g>
  </g>
</svg>
